M48
;Layer_Color=9474304
;FILE_FORMAT=2:5
INCH,LZ
;TYPE=PLATED
T1F00S00C0.02362
T2F00S00C0.02811
T3F00S00C0.03200
T4F00S00C0.03346
T5F00S00C0.04331
T6F00S00C0.05906
T7F00S00C0.08300
T8F00S00C0.11811
%
T01
X0125616Y02585
Y03089
X01261Y03558
X0252084
X02516Y03089
Y02585
T02
X02773Y01714
Y01914
X02873Y01814
T03
X03183Y02948
X03258Y02998
Y02898
X0362Y02924
X03695Y02974
Y02874
T04
X03958Y0169
X04421Y01695
X02147Y01703
X01747
X01686Y02096
X02086
X03958Y0219
X04421Y02195
T05
X03415Y0177134
Y0218866
T06
X0056311Y01825
Y02025
Y02225
X03712Y0358489
X03912
X04112
X05142Y02622
Y02422
Y02222
T07
X04925Y00659
Y010527
X036Y010477
Y00654
X0229331Y0066732
Y0106102
X0099606Y0104331
Y0064961
T08
X00119Y0012
X0578839Y0011909
X0578248Y0381594
X00122Y03821
M30
