G04*
G04 #@! TF.GenerationSoftware,Altium Limited,Altium Designer,22.3.1 (43)*
G04*
G04 Layer_Color=255*
%FSLAX25Y25*%
%MOIN*%
G70*
G04*
G04 #@! TF.SameCoordinates,EC9277C9-050F-4012-A3D3-CC2B3E04D0D2*
G04*
G04*
G04 #@! TF.FilePolarity,Positive*
G04*
G01*
G75*
%ADD21C,0.10300*%
%ADD24C,0.06000*%
%ADD27C,0.04724*%
%ADD28C,0.08858*%
%ADD29R,0.08858X0.08858*%
%ADD30R,0.04811X0.04811*%
%ADD31C,0.04811*%
%ADD32C,0.05512*%
%ADD33R,0.06496X0.06496*%
%ADD34C,0.06496*%
%ADD35C,0.05200*%
%ADD36R,0.08858X0.08858*%
D21*
X229331Y66732D02*
D03*
Y106102D02*
D03*
X99606Y64961D02*
D03*
Y104331D02*
D03*
X492500Y65900D02*
D03*
Y105270D02*
D03*
X360000Y65400D02*
D03*
Y104770D02*
D03*
D24*
X12200Y382100D02*
D03*
X11900Y12000D02*
D03*
X578839Y11909D02*
D03*
X578248Y381594D02*
D03*
D27*
X251600Y308900D02*
D03*
X125616D02*
D03*
X252084Y355800D02*
D03*
X126100D02*
D03*
X251600Y258500D02*
D03*
X125616D02*
D03*
D28*
X56311Y182500D02*
D03*
Y202500D02*
D03*
X514200Y262200D02*
D03*
Y242200D02*
D03*
X371200Y358489D02*
D03*
X391200D02*
D03*
D29*
X56311Y222500D02*
D03*
X514200Y222200D02*
D03*
D30*
X277300Y191400D02*
D03*
D31*
X287300Y181400D02*
D03*
X277300Y171400D02*
D03*
D32*
X174700Y170300D02*
D03*
X214700D02*
D03*
X395800Y219000D02*
D03*
Y169000D02*
D03*
X442100Y219500D02*
D03*
Y169500D02*
D03*
X208600Y209600D02*
D03*
X168600D02*
D03*
D33*
X341500Y218866D02*
D03*
D34*
Y177134D02*
D03*
D35*
X325800Y299800D02*
D03*
X318300Y294800D02*
D03*
X325800Y289800D02*
D03*
X369500Y297400D02*
D03*
X362000Y292400D02*
D03*
X369500Y287400D02*
D03*
D36*
X411200Y358489D02*
D03*
M02*
