G04*
G04 #@! TF.GenerationSoftware,Altium Limited,Altium Designer,22.3.1 (43)*
G04*
G04 Layer_Color=8388736*
%FSLAX25Y25*%
%MOIN*%
G70*
G04*
G04 #@! TF.SameCoordinates,EC9277C9-050F-4012-A3D3-CC2B3E04D0D2*
G04*
G04*
G04 #@! TF.FilePolarity,Negative*
G04*
G01*
G75*
%ADD15C,0.05524*%
%ADD16C,0.09658*%
%ADD17R,0.09658X0.09658*%
%ADD18R,0.05611X0.05611*%
%ADD19C,0.05611*%
%ADD20C,0.06312*%
%ADD21C,0.10300*%
%ADD22R,0.07296X0.07296*%
%ADD23C,0.07296*%
%ADD24C,0.06000*%
%ADD25R,0.09658X0.09658*%
%ADD26C,0.06800*%
D15*
X251600Y308900D02*
D03*
X125616D02*
D03*
X252084Y355800D02*
D03*
X126100D02*
D03*
X251600Y258500D02*
D03*
X125616D02*
D03*
D16*
X56311Y182500D02*
D03*
Y202500D02*
D03*
X514200Y262200D02*
D03*
Y242200D02*
D03*
X371200Y358489D02*
D03*
X391200D02*
D03*
D17*
X56311Y222500D02*
D03*
X514200Y222200D02*
D03*
D18*
X277300Y191400D02*
D03*
D19*
X287300Y181400D02*
D03*
X277300Y171400D02*
D03*
D20*
X174700Y170300D02*
D03*
X214700D02*
D03*
X395800Y219000D02*
D03*
Y169000D02*
D03*
X442100Y219500D02*
D03*
Y169500D02*
D03*
X208600Y209600D02*
D03*
X168600D02*
D03*
D21*
X229331Y66732D02*
D03*
Y106102D02*
D03*
X99606Y64961D02*
D03*
Y104331D02*
D03*
X492500Y65900D02*
D03*
Y105270D02*
D03*
X360000Y65400D02*
D03*
Y104770D02*
D03*
D22*
X341500Y218866D02*
D03*
D23*
Y177134D02*
D03*
D24*
X325800Y299800D02*
D03*
X318300Y294800D02*
D03*
X325800Y289800D02*
D03*
X369500Y297400D02*
D03*
X362000Y292400D02*
D03*
X369500Y287400D02*
D03*
D25*
X411200Y358489D02*
D03*
D26*
X12200Y382100D02*
D03*
X11900Y12000D02*
D03*
X578839Y11909D02*
D03*
X578248Y381594D02*
D03*
M02*
